<svg clip-rule="evenodd" fill-rule="evenodd" stroke-linecap="round" stroke-linejoin="round" viewBox="0 0 1024 1024" xmlns="http://www.w3.org/2000/svg"><g transform="translate(102 102) scale(0.8)"><path d="m1024 220v584c0 121.421-98.579 220-220 220h-584c-121.421 0-220-98.579-220-220v-584c0-121.421 98.579-220 220-220h584c121.421 0 220 98.579 220 220z" fill="#931c22"/><g fill="none" stroke="#fff" stroke-width="48" transform="translate(0 34)"><path d="m512 380-172 180"/><path d="m512 380 172 180"/><path d="m512 380v320"/><path d="m340 280c45.163-46.41 107.242-72.62 172-72.62s126.837 26.21 172 72.62"/><path d="m640 200 80 80-100 20"/></g><g fill="#fff"><circle cx="512" cy="414" r="56"/><circle cx="340" cy="594" r="56"/><circle cx="684" cy="594" r="56"/><circle cx="512" cy="734" r="56"/></g></g></svg>